<!-- Pivot AI — LinkedIn company/personal banner. 1584×396. Editable source. -->
<svg xmlns="http://www.w3.org/2000/svg" viewBox="0 0 1584 396" width="1584" height="396" role="img" aria-label="Pivot AI LinkedIn banner">
  <defs>
    <linearGradient id="bg" x1="0" y1="0" x2="1" y2="1">
      <stop offset="0" stop-color="#0E1B2C"/>
      <stop offset="1" stop-color="#132C55"/>
    </linearGradient>
  </defs>
  <rect width="1584" height="396" fill="url(#bg)"/>
  <!-- Decorative pivot arc -->
  <path d="M1584 120a260 260 0 0 0-420 60" fill="none" stroke="#F59E0B" stroke-width="3" opacity="0.25"/>
  <circle cx="1300" cy="70" r="4" fill="#F59E0B" opacity="0.5"/>
  <!-- Mark -->
  <g transform="translate(110 150)">
    <rect x="1" y="1" width="94" height="94" rx="24" fill="#0E1B2C" stroke="#F59E0B" stroke-width="2"/>
    <g transform="translate(16 16) scale(1)">
      <path d="M41 43c-2.2 0-4.4-.4-6.4-1.2-.6-.2-1.4-.2-1.8.4l-3.8 4.8c-5.6-2.8-10-7.2-12.8-12.8l4.8-3.8c.6-.6.6-1.2.4-1.8-.8-2-1.2-4.2-1.2-6.4 0-1.2-.8-2-2-2H13c-1.2 0-2 .8-2 2 0 16.6 13.4 30 30 30 1.2 0 2-.8 2-2v-5c0-1.2-.8-2-2-2z" fill="#F59E0B"/>
    </g>
  </g>
  <text x="240" y="185" font-family="Inter, Arial, sans-serif" font-size="58" font-weight="800" letter-spacing="-1.5" fill="#FFFFFF">Pivot<tspan fill="#F59E0B"> AI</tspan></text>
  <text x="243" y="235" font-family="Inter, Arial, sans-serif" font-size="26" font-weight="500" fill="#AAC2DD">The 24/7 AI receptionist for local service businesses</text>
  <text x="243" y="286" font-family="Inter, Arial, sans-serif" font-size="20" font-weight="600" letter-spacing="1" fill="#7A9ECB">Answer every call · Capture every lead · Book every job · pivotcalls.co</text>
</svg>
